<?xml version="1.0" encoding="utf-8"?>
<!-- Generator: Adobe Illustrator 19.1.0, SVG Export Plug-In . SVG Version: 6.00 Build 0)  -->
<svg version="1.1" xmlns="http://www.w3.org/2000/svg" xmlns:xlink="http://www.w3.org/1999/xlink" x="0px" y="0px"
	 viewBox="0 0 210 43.8" enable-background="new 0 0 210 43.8" xml:space="preserve">
<g id="Layer_2">
</g>
<g id="Layer_1">
</g>
<g id="Layer_3">
	<g>
		<g>
			<circle fill="#FF5533" cx="104.5" cy="18" r="9.2"/>
			<circle fill="#FF5533" cx="104.5" cy="18" r="9.2"/>
			<circle fill="#FF5533" cx="74.5" cy="18" r="9.2"/>
			<circle fill="#FF5533" cx="134.5" cy="18" r="9.2"/>
		</g>
		<polygon fill="#3C4D27" points="9.6,37.7 5.3,33.2 18.2,20 5,20 5,14 53,14 53,21.1 36.3,38.2 32.2,33.4 45.2,20 40.4,20 
			23.6,37.7 19.3,33.2 32.2,20 26.4,20 		"/>
		<polygon fill="#3C4D27" points="199.4,37.7 203.7,33.2 190.8,20 204,20 204,14 156,14 156,21.1 172.7,38.2 176.8,33.4 163.8,20 
			168.6,20 185.4,37.7 189.7,33.2 176.8,20 182.6,20 		"/>
	</g>
</g>
</svg>
