<?xml version="1.0" encoding="utf-8"?>
<!-- Generator: Adobe Illustrator 19.1.0, SVG Export Plug-In . SVG Version: 6.00 Build 0)  -->
<svg version="1.1" xmlns="http://www.w3.org/2000/svg" xmlns:xlink="http://www.w3.org/1999/xlink" x="0px" y="0px"
	 viewBox="0 0 100 80" enable-background="new 0 0 100 80" xml:space="preserve">
<g id="Layer_2">
</g>
<g id="Layer_1">
</g>
<g id="Layer_3">
	<polyline fill="#FF5533" points="9,18.5 9,61.5 91,61.5 91,18.5 	"/>
	<path fill="#3C4D27" d="M16.6,31.7v-2.5c-0.8-0.2-1.4-0.6-1.7-1c-0.4-0.5-0.6-1-0.6-1.7c0-0.7,0.2-1.2,0.6-1.7
		c0.4-0.5,1-0.7,1.7-0.8v-0.6h0.9V24c0.6,0.1,1.2,0.3,1.5,0.7c0.4,0.4,0.6,0.8,0.7,1.5l-1.5,0.2c-0.1-0.5-0.3-0.8-0.7-1v2.4
		c1,0.3,1.6,0.6,2,1c0.4,0.4,0.5,1,0.5,1.6c0,0.7-0.2,1.4-0.7,1.9c-0.4,0.5-1.1,0.8-1.9,0.9v1.1h-0.9v-1.1c-0.7-0.1-1.3-0.3-1.7-0.8
		c-0.4-0.4-0.7-1.1-0.8-1.9l1.6-0.2c0.1,0.3,0.2,0.6,0.4,0.8C16.2,31.4,16.4,31.6,16.6,31.7z M16.6,25.3c-0.2,0.1-0.4,0.2-0.6,0.4
		c-0.1,0.2-0.2,0.4-0.2,0.6c0,0.2,0.1,0.4,0.2,0.6c0.1,0.2,0.3,0.3,0.6,0.4V25.3z M17.5,31.8c0.3-0.1,0.6-0.2,0.7-0.4
		c0.2-0.2,0.3-0.5,0.3-0.8c0-0.3-0.1-0.5-0.2-0.7c-0.2-0.2-0.4-0.3-0.8-0.5V31.8z"/>
	<path fill="#3C4D27" d="M82.4,31.7v-2.5c-0.8-0.2-1.4-0.6-1.7-1c-0.4-0.5-0.6-1-0.6-1.7c0-0.7,0.2-1.2,0.6-1.7
		c0.4-0.5,1-0.7,1.7-0.8v-0.6h0.9V24c0.6,0.1,1.2,0.3,1.5,0.7c0.4,0.4,0.6,0.8,0.7,1.5L84,26.3c-0.1-0.5-0.3-0.8-0.7-1v2.4
		c1,0.3,1.6,0.6,2,1c0.4,0.4,0.5,1,0.5,1.6c0,0.7-0.2,1.4-0.7,1.9c-0.4,0.5-1.1,0.8-1.9,0.9v1.1h-0.9v-1.1c-0.7-0.1-1.3-0.3-1.7-0.8
		c-0.4-0.4-0.7-1.1-0.8-1.9l1.6-0.2c0.1,0.3,0.2,0.6,0.4,0.8C82,31.4,82.2,31.6,82.4,31.7z M82.4,25.3c-0.2,0.1-0.4,0.2-0.6,0.4
		c-0.1,0.2-0.2,0.4-0.2,0.6c0,0.2,0.1,0.4,0.2,0.6c0.1,0.2,0.3,0.3,0.6,0.4V25.3z M83.3,31.8c0.3-0.1,0.6-0.2,0.7-0.4
		c0.2-0.2,0.3-0.5,0.3-0.8c0-0.3-0.1-0.5-0.2-0.7c-0.2-0.2-0.4-0.3-0.8-0.5V31.8z"/>
	<path fill="#3C4D27" d="M16.6,53.7v-2.5c-0.8-0.2-1.4-0.6-1.7-1c-0.4-0.5-0.6-1-0.6-1.7c0-0.7,0.2-1.2,0.6-1.7
		c0.4-0.5,1-0.7,1.7-0.8v-0.6h0.9V46c0.6,0.1,1.2,0.3,1.5,0.7c0.4,0.4,0.6,0.8,0.7,1.5l-1.5,0.2c-0.1-0.5-0.3-0.8-0.7-1v2.4
		c1,0.3,1.6,0.6,2,1c0.4,0.4,0.5,1,0.5,1.6c0,0.7-0.2,1.4-0.7,1.9c-0.4,0.5-1.1,0.8-1.9,0.9v1.1h-0.9v-1.1c-0.7-0.1-1.3-0.3-1.7-0.8
		c-0.4-0.4-0.7-1.1-0.8-1.9l1.6-0.2c0.1,0.3,0.2,0.6,0.4,0.8C16.2,53.4,16.4,53.6,16.6,53.7z M16.6,47.3c-0.2,0.1-0.4,0.2-0.6,0.4
		c-0.1,0.2-0.2,0.4-0.2,0.6c0,0.2,0.1,0.4,0.2,0.6c0.1,0.2,0.3,0.3,0.6,0.4V47.3z M17.5,53.8c0.3-0.1,0.6-0.2,0.7-0.4
		c0.2-0.2,0.3-0.5,0.3-0.8c0-0.3-0.1-0.5-0.2-0.7c-0.2-0.2-0.4-0.3-0.8-0.5V53.8z"/>
	<path fill="#3C4D27" d="M82.4,53.7v-2.5c-0.8-0.2-1.4-0.6-1.7-1c-0.4-0.5-0.6-1-0.6-1.7c0-0.7,0.2-1.2,0.6-1.7
		c0.4-0.5,1-0.7,1.7-0.8v-0.6h0.9V46c0.6,0.1,1.2,0.3,1.5,0.7c0.4,0.4,0.6,0.8,0.7,1.5L84,48.3c-0.1-0.5-0.3-0.8-0.7-1v2.4
		c1,0.3,1.6,0.6,2,1c0.4,0.4,0.5,1,0.5,1.6c0,0.7-0.2,1.4-0.7,1.9c-0.4,0.5-1.1,0.8-1.9,0.9v1.1h-0.9v-1.1c-0.7-0.1-1.3-0.3-1.7-0.8
		c-0.4-0.4-0.7-1.1-0.8-1.9l1.6-0.2c0.1,0.3,0.2,0.6,0.4,0.8C82,53.4,82.2,53.6,82.4,53.7z M82.4,47.3c-0.2,0.1-0.4,0.2-0.6,0.4
		c-0.1,0.2-0.2,0.4-0.2,0.6c0,0.2,0.1,0.4,0.2,0.6c0.1,0.2,0.3,0.3,0.6,0.4V47.3z M83.3,53.8c0.3-0.1,0.6-0.2,0.7-0.4
		c0.2-0.2,0.3-0.5,0.3-0.8c0-0.3-0.1-0.5-0.2-0.7c-0.2-0.2-0.4-0.3-0.8-0.5V53.8z"/>
	<path fill="#3C4D27" d="M50,57.2c-8.3,0-15-7.9-15-17.5s6.7-17.5,15-17.5S65,30,65,39.7S58.3,57.2,50,57.2z M50,28.2
		c-5,0-9,5.2-9,11.5s4,11.5,9,11.5s9-5.2,9-11.5S55,28.2,50,28.2z"/>
</g>
</svg>
