<?xml version="1.0" encoding="utf-8"?>
<!-- Generator: Adobe Illustrator 19.1.0, SVG Export Plug-In . SVG Version: 6.00 Build 0)  -->
<svg version="1.1" xmlns="http://www.w3.org/2000/svg" xmlns:xlink="http://www.w3.org/1999/xlink" x="0px" y="0px"
	 viewBox="0 0 320 240" enable-background="new 0 0 320 240" xml:space="preserve">
<g id="Layer_2">
</g>
<g id="Layer_1">
</g>
<g id="Layer_3">
	<g>
		<g>
			<g>
				<path fill="#F2F2E7" d="M230.7,26h-50.1c0,15-12.1,28.1-35.6,28.1S109.4,41,109.4,26H66.2L6,85.3v55.2l56-48.8V238h165V91.7
					l56,48.8V85.3L230.7,26z"/>
			</g>
			<g>
				<polygon fill="#F2F2E7" points="7.4,140.5 70.2,175.3 91.1,134.1 7.4,85.3 				"/>
			</g>
			<g>
				<polygon fill="#F2F2E7" points="283.5,140.5 220.8,175.3 199.8,134.1 283.5,85.3 				"/>
			</g>
		</g>
		<g>
			<g>
				<g>
					<path fill="#FF5533" d="M202.7,105.1c0-13.5-10.9-24.4-24.4-24.4c-10.9,0-20.1,7.1-23.3,17c-3.2-9.8-12.4-17-23.3-17
						c-13.5,0-24.4,10.9-24.4,24.4c0,26.3,47.7,58.2,47.7,58.2S202.7,131.4,202.7,105.1z"/>
				</g>
			</g>
			<g>
				<g>
					<path fill="#3C4D27" d="M155,142.6c-9.3,0-17.2-6.6-17.2-13.6h6c0,3,4.8,7.6,11.2,7.6c6.4,0,11.2-4.6,11.2-7.6h6
						C172.2,136,164.3,142.6,155,142.6z"/>
				</g>
			</g>
		</g>
		<g>
			<g>
				<g>
					<g>
						<g>
							<path fill="#3C4D27" d="M52.9,99.5l20.5-17.8V111l6,4V81.7l-10.1-4.5L47.9,95.9L52.9,99.5z M231.4,159v63h-152v-62l-6-2v70
								h164v-70L231.4,159z M263.4,96.3l-21.9-19.1l-10.1,4.5V115l6-4V81.7l20.5,17.8L263.4,96.3z M238.4,21.6l49,56V82l6-2v-4.7
								L241.2,16l0,0h-50.1c0,15-12.1,28.1-35.6,28.1S119.9,31,119.9,16H76.6L17.4,75.3V78l6,3v-3.2L79.1,22h35.3
								c2.7,15,15.7,28.1,41.1,28.1S193.8,37,196.6,22h41.8"/>
						</g>
					</g>
				</g>
			</g>
			<g>
				<g>
					<g>
						<g>
							<path fill="#3C4D27" d="M23.3,85.7l69.8,40.7l-15.5,30.7L23.3,127V85.7 M17.3,75.3v55.2l62.8,34.9l20.9-41.3L17.3,75.3
								L17.3,75.3z"/>
						</g>
					</g>
				</g>
			</g>
			<g>
				<g>
					<g>
						<g>
							<path fill="#3C4D27" d="M287.6,85.7V127l-54.2,30.1l-15.5-30.7L287.6,85.7 M293.6,75.3l-83.7,48.8l20.9,41.3l62.8-34.9V75.3
								L293.6,75.3z"/>
						</g>
					</g>
				</g>
			</g>
		</g>
	</g>
</g>
</svg>
