<?xml version="1.0" encoding="utf-8"?>
<!-- Generator: Adobe Illustrator 19.1.0, SVG Export Plug-In . SVG Version: 6.00 Build 0)  -->
<svg version="1.1" xmlns="http://www.w3.org/2000/svg" xmlns:xlink="http://www.w3.org/1999/xlink" x="0px" y="0px"
	 viewBox="0 0 120 120" enable-background="new 0 0 120 120" xml:space="preserve">
<g id="Layer_2">
</g>
<g id="Layer_1">
</g>
<g id="Layer_3">
	<g>
		<g>
			<polygon fill="#3C4D27" points="111.1,34.1 115.4,29.9 102.5,17 115,17 115,11 67,11 67,17 84,34.2 88.3,29.9 75.5,17 80.3,17 
				97.1,34.1 101.4,29.9 88.5,17 94.3,17 			"/>
			<polygon fill="#3C4D27" points="34.7,110.4 30.2,114.7 17,101.8 17,115 11,115 11,67 18.1,67 35.2,83.6 30.4,87.8 17,74.8 
				17,79.6 34.7,96.4 30.2,100.7 17,87.8 17,93.6 			"/>
		</g>
		<g>
			<circle fill="#FF5533" cx="13.9" cy="14.2" r="9.2"/>
		</g>
		<g>
			<circle fill="#FF5533" cx="13.9" cy="44.2" r="9.2"/>
		</g>
		<g>
			<circle fill="#FF5533" cx="43.9" cy="14.2" r="9.2"/>
		</g>
	</g>
</g>
</svg>
