<?xml version="1.0" encoding="utf-8"?>
<!-- Generator: Adobe Illustrator 19.1.0, SVG Export Plug-In . SVG Version: 6.00 Build 0)  -->
<svg version="1.1" xmlns="http://www.w3.org/2000/svg" xmlns:xlink="http://www.w3.org/1999/xlink" x="0px" y="0px"
	 viewBox="0 0 320 240" enable-background="new 0 0 320 240" xml:space="preserve">
<g id="Layer_2">
</g>
<g id="Layer_1">
</g>
<g id="Layer_3">
	<g>
		<g>
			<path fill="#F2F2E7" d="M230.7,28h-50.1c0,15-12.1,28.1-35.6,28.1S109.4,43,109.4,28H66.2L7,87.3v55.2l56-48.8V240h164V93.7
				l56,48.8V87.3L230.7,28z"/>
		</g>
		<g>
			<polygon fill="#F2F2E7" points="6.9,142.5 69.7,177.3 90.6,136.1 6.9,87.3 			"/>
		</g>
		<g>
			<polygon fill="#F2F2E7" points="283,142.5 220.3,177.3 199.4,136.1 283,87.3 			"/>
		</g>
	</g>
	<g>
		<g>
			<g>
				<g>
					<g>
						<path fill="#3C4D27" d="M52.5,99.5L73,81.7V111l6,4V81.7l-10.1-4.5L47.5,95.9L52.5,99.5z M231,159v63H79v-62l-6-2v70h164v-70
							L231,159z M263,96.3l-21.9-19.1L231,81.7V115l6-4V81.7l20.5,17.8L263,96.3z M238,21.6l49,56V82l6-2v-4.7L240.8,16l0,0h-50.1
							c0,15-12.1,28.1-35.6,28.1S119.5,31,119.5,16H76.2L17,75.3V78l6,3v-3.2L78.7,22H114c2.7,15,15.7,28.1,41.1,28.1
							S193.4,37,196.2,22H238"/>
					</g>
				</g>
			</g>
		</g>
		<g>
			<g>
				<g>
					<g>
						<path fill="#3C4D27" d="M22.9,85.7l69.8,40.7l-15.5,30.7L22.9,127V85.7 M16.9,75.3v55.2l62.8,34.9l20.9-41.3L16.9,75.3
							L16.9,75.3z"/>
					</g>
				</g>
			</g>
		</g>
		<g>
			<g>
				<g>
					<g>
						<path fill="#3C4D27" d="M287.1,85.7V127l-54.2,30.1l-15.5-30.7L287.1,85.7 M293.1,75.3l-83.7,48.8l20.9,41.3l62.8-34.9V75.3
							L293.1,75.3z"/>
					</g>
				</g>
			</g>
		</g>
	</g>
</g>
</svg>
