<?xml version="1.0" encoding="utf-8"?>
<!-- Generator: Adobe Illustrator 19.1.0, SVG Export Plug-In . SVG Version: 6.00 Build 0)  -->
<svg version="1.1" xmlns="http://www.w3.org/2000/svg" xmlns:xlink="http://www.w3.org/1999/xlink" x="0px" y="0px"
	 viewBox="0 0 120 120" enable-background="new 0 0 120 120" xml:space="preserve">
<g id="Layer_2">
</g>
<g id="Layer_1">
</g>
<g id="Layer_3">
	<g>
		<g>
			<polygon fill="#3C4D27" points="85.8,111.1 90.1,115.3 103,102.5 103,115 109,115 109,67 102.9,67 85.8,84 90.1,88.3 103,75.5 
				103,80.3 85.8,97.1 90.1,101.3 103,88.5 103,94.3 			"/>
			<polygon fill="#3C4D27" points="9.6,34.7 5.3,30.2 18.2,17 5,17 5,11 53,11 53,18.1 36.3,35.2 32.2,30.4 45.2,17 40.4,17 
				23.6,34.7 19.3,30.2 32.2,17 26.4,17 			"/>
		</g>
		<g>
			<circle fill="#FF5533" cx="105.8" cy="13.8" r="9.2"/>
		</g>
		<g>
			<circle fill="#FF5533" cx="75.8" cy="13.8" r="9.2"/>
		</g>
		<g>
			<circle fill="#FF5533" cx="105.8" cy="43.8" r="9.2"/>
		</g>
	</g>
</g>
</svg>
