<?xml version="1.0" encoding="utf-8"?>
<!-- Generator: Adobe Illustrator 19.1.0, SVG Export Plug-In . SVG Version: 6.00 Build 0)  -->
<svg version="1.1" xmlns="http://www.w3.org/2000/svg" xmlns:xlink="http://www.w3.org/1999/xlink" x="0px" y="0px"
	 viewBox="0 0 558 270" enable-background="new 0 0 558 270" xml:space="preserve">
<g id="Layer_2">
</g>
<g id="Layer_1">
</g>
<g id="Layer_3">
	<g>
		<g>
			<path fill="#FF5533" d="M402.5,91.3c0-34.9-28.3-63.2-63.2-63.2C311,28.1,287.2,46.5,279,72c-8.2-25.5-32-43.9-60.2-43.9
				c-34.9,0-63.2,28.3-63.2,63.2c0,68,123.5,150.6,123.5,150.6S402.5,159.3,402.5,91.3z"/>
		</g>
		<g>
			<path fill="#3C4D27" d="M279,186.1c-24.2,0-44.6-11.1-44.6-35.1H250c0,8,12.4,19.6,29.1,19.6c16.6,0,29.1-11.6,29.1-19.6h15.5
				C323.6,175,303.2,186.1,279,186.1z"/>
		</g>
	</g>
</g>
</svg>
