<?xml version="1.0" encoding="utf-8"?>
<!-- Generator: Adobe Illustrator 19.1.0, SVG Export Plug-In . SVG Version: 6.00 Build 0)  -->
<svg version="1.1" xmlns="http://www.w3.org/2000/svg" xmlns:xlink="http://www.w3.org/1999/xlink" x="0px" y="0px"
	 viewBox="0 0 120 120" enable-background="new 0 0 120 120" xml:space="preserve">
<g id="Layer_2">
</g>
<g id="Layer_1">
</g>
<g id="Layer_3">
	<g>
		<g>
			<polygon fill="#F2F2E7" points="91.9,96.5 50,113.2 8.1,96.5 8.1,43.5 50,26.8 91.9,43.5 			"/>
		</g>
	</g>
	<g>
		<g>
			<g>
				<polygon fill="#FF5533" points="101.9,86.5 60,103.2 18.1,86.5 18.1,33.5 60,16.8 101.9,33.5 				"/>
			</g>
		</g>
		<g>
			<g>
				<g>
					<polygon fill="#3C4D27" points="63,98.5 57,98.5 57,52.4 20.8,38 23,32.4 61.1,47.6 63,50.3 					"/>
				</g>
			</g>
			<g>
				<g>
					
						<rect x="40.2" y="32.3" transform="matrix(0.929 0.3702 -0.3702 0.929 17.3694 -19.9683)" fill="#3C4D27" width="41" height="6"/>
				</g>
			</g>
			<g>
				<g>
					<polygon fill="#3C4D27" points="63,98.5 57,98.5 57,50.3 58.9,47.6 97,32.4 99.2,38 63,52.4 					"/>
				</g>
			</g>
		</g>
	</g>
</g>
</svg>
