<?xml version="1.0" encoding="utf-8"?>
<!-- Generator: Adobe Illustrator 19.1.0, SVG Export Plug-In . SVG Version: 6.00 Build 0)  -->
<svg version="1.1" xmlns="http://www.w3.org/2000/svg" xmlns:xlink="http://www.w3.org/1999/xlink" x="0px" y="0px"
	 viewBox="0 0 100 100" enable-background="new 0 0 100 100" xml:space="preserve">
<g id="Layer_2">
</g>
<g id="Layer_1">
</g>
<g id="Layer_3">
	<g>
		<g>
			<polyline fill="#FF5533" points="9,28.5 9,71.5 91,71.5 91,28.5 			"/>
		</g>
		<g>
			<path fill="#3C4D27" d="M16.6,41.7v-2.5c-0.8-0.2-1.4-0.6-1.7-1c-0.4-0.5-0.6-1-0.6-1.7c0-0.7,0.2-1.2,0.6-1.7
				c0.4-0.5,1-0.7,1.7-0.8v-0.6h0.9V34c0.6,0.1,1.2,0.3,1.5,0.7c0.4,0.4,0.6,0.8,0.7,1.5l-1.5,0.2c-0.1-0.5-0.3-0.8-0.7-1v2.4
				c1,0.3,1.6,0.6,2,1c0.4,0.4,0.5,1,0.5,1.6c0,0.7-0.2,1.4-0.7,1.9c-0.4,0.5-1.1,0.8-1.9,0.9v1.1h-0.9v-1.1
				c-0.7-0.1-1.3-0.3-1.7-0.8c-0.4-0.4-0.7-1.1-0.8-1.9l1.6-0.2c0.1,0.3,0.2,0.6,0.4,0.8C16.2,41.4,16.4,41.6,16.6,41.7z M16.6,35.3
				c-0.2,0.1-0.4,0.2-0.6,0.4c-0.1,0.2-0.2,0.4-0.2,0.6c0,0.2,0.1,0.4,0.2,0.6c0.1,0.2,0.3,0.3,0.6,0.4V35.3z M17.5,41.8
				c0.3-0.1,0.6-0.2,0.7-0.4c0.2-0.2,0.3-0.5,0.3-0.8c0-0.3-0.1-0.5-0.2-0.7c-0.2-0.2-0.4-0.3-0.8-0.5V41.8z"/>
			<path fill="#3C4D27" d="M82.4,41.7v-2.5c-0.8-0.2-1.4-0.6-1.7-1c-0.4-0.5-0.6-1-0.6-1.7c0-0.7,0.2-1.2,0.6-1.7
				c0.4-0.5,1-0.7,1.7-0.8v-0.6h0.9V34c0.6,0.1,1.2,0.3,1.5,0.7c0.4,0.4,0.6,0.8,0.7,1.5L84,36.3c-0.1-0.5-0.3-0.8-0.7-1v2.4
				c1,0.3,1.6,0.6,2,1c0.4,0.4,0.5,1,0.5,1.6c0,0.7-0.2,1.4-0.7,1.9c-0.4,0.5-1.1,0.8-1.9,0.9v1.1h-0.9v-1.1
				c-0.7-0.1-1.3-0.3-1.7-0.8c-0.4-0.4-0.7-1.1-0.8-1.9l1.6-0.2c0.1,0.3,0.2,0.6,0.4,0.8C82,41.4,82.2,41.6,82.4,41.7z M82.4,35.3
				c-0.2,0.1-0.4,0.2-0.6,0.4c-0.1,0.2-0.2,0.4-0.2,0.6c0,0.2,0.1,0.4,0.2,0.6c0.1,0.2,0.3,0.3,0.6,0.4V35.3z M83.3,41.8
				c0.3-0.1,0.6-0.2,0.7-0.4c0.2-0.2,0.3-0.5,0.3-0.8c0-0.3-0.1-0.5-0.2-0.7c-0.2-0.2-0.4-0.3-0.8-0.5V41.8z"/>
		</g>
		<g>
			<path fill="#3C4D27" d="M16.6,63.7v-2.5c-0.8-0.2-1.4-0.6-1.7-1c-0.4-0.5-0.6-1-0.6-1.7c0-0.7,0.2-1.2,0.6-1.7
				c0.4-0.5,1-0.7,1.7-0.8v-0.6h0.9V56c0.6,0.1,1.2,0.3,1.5,0.7c0.4,0.4,0.6,0.8,0.7,1.5l-1.5,0.2c-0.1-0.5-0.3-0.8-0.7-1v2.4
				c1,0.3,1.6,0.6,2,1c0.4,0.4,0.5,1,0.5,1.6c0,0.7-0.2,1.4-0.7,1.9c-0.4,0.5-1.1,0.8-1.9,0.9v1.1h-0.9v-1.1
				c-0.7-0.1-1.3-0.3-1.7-0.8c-0.4-0.4-0.7-1.1-0.8-1.9l1.6-0.2c0.1,0.3,0.2,0.6,0.4,0.8C16.2,63.4,16.4,63.6,16.6,63.7z M16.6,57.3
				c-0.2,0.1-0.4,0.2-0.6,0.4c-0.1,0.2-0.2,0.4-0.2,0.6c0,0.2,0.1,0.4,0.2,0.6c0.1,0.2,0.3,0.3,0.6,0.4V57.3z M17.5,63.8
				c0.3-0.1,0.6-0.2,0.7-0.4c0.2-0.2,0.3-0.5,0.3-0.8c0-0.3-0.1-0.5-0.2-0.7c-0.2-0.2-0.4-0.3-0.8-0.5V63.8z"/>
			<path fill="#3C4D27" d="M82.4,63.7v-2.5c-0.8-0.2-1.4-0.6-1.7-1c-0.4-0.5-0.6-1-0.6-1.7c0-0.7,0.2-1.2,0.6-1.7
				c0.4-0.5,1-0.7,1.7-0.8v-0.6h0.9V56c0.6,0.1,1.2,0.3,1.5,0.7c0.4,0.4,0.6,0.8,0.7,1.5L84,58.3c-0.1-0.5-0.3-0.8-0.7-1v2.4
				c1,0.3,1.6,0.6,2,1c0.4,0.4,0.5,1,0.5,1.6c0,0.7-0.2,1.4-0.7,1.9c-0.4,0.5-1.1,0.8-1.9,0.9v1.1h-0.9v-1.1
				c-0.7-0.1-1.3-0.3-1.7-0.8c-0.4-0.4-0.7-1.1-0.8-1.9l1.6-0.2c0.1,0.3,0.2,0.6,0.4,0.8C82,63.4,82.2,63.6,82.4,63.7z M82.4,57.3
				c-0.2,0.1-0.4,0.2-0.6,0.4c-0.1,0.2-0.2,0.4-0.2,0.6c0,0.2,0.1,0.4,0.2,0.6c0.1,0.2,0.3,0.3,0.6,0.4V57.3z M83.3,63.8
				c0.3-0.1,0.6-0.2,0.7-0.4c0.2-0.2,0.3-0.5,0.3-0.8c0-0.3-0.1-0.5-0.2-0.7c-0.2-0.2-0.4-0.3-0.8-0.5V63.8z"/>
		</g>
		<g>
			<path fill="#3C4D27" d="M50,67.2c-8.3,0-15-7.9-15-17.5s6.7-17.5,15-17.5S65,40,65,49.7S58.3,67.2,50,67.2z M50,38.2
				c-5,0-9,5.2-9,11.5s4,11.5,9,11.5s9-5.2,9-11.5S55,38.2,50,38.2z"/>
		</g>
	</g>
</g>
</svg>
