<?xml version="1.0" encoding="utf-8"?>
<!-- Generator: Adobe Illustrator 19.1.0, SVG Export Plug-In . SVG Version: 6.00 Build 0)  -->
<svg version="1.1" xmlns="http://www.w3.org/2000/svg" xmlns:xlink="http://www.w3.org/1999/xlink" x="0px" y="0px"
	 viewBox="0 0 340 280" enable-background="new 0 0 340 280" xml:space="preserve">
<g id="Layer_2">
</g>
<g id="Layer_1">
</g>
<g id="Layer_3">
	<g>
		<g>
			<path fill="#F2F2E7" d="M245.8,44h-50.1c0,15-12.1,28.1-35.6,28.1S124.4,59,124.4,44H81.2L22,103.3v55.2l56-48.8V256h164V109.7
				l56,48.8v-55.2L245.8,44z"/>
		</g>
		<g>
			<polygon fill="#F2F2E7" points="21.9,158.5 84.7,193.3 105.6,152.1 21.9,103.3 			"/>
		</g>
		<g>
			<polygon fill="#F2F2E7" points="298.1,158.5 235.3,193.3 214.4,152.1 298.1,103.3 			"/>
		</g>
	</g>
	<g>
		<g>
			<g>
				<polygon fill="#FF5533" points="211.9,166.5 170,183.2 128.1,166.5 128.1,113.5 170,96.8 211.9,113.5 				"/>
			</g>
		</g>
		<g>
			<g>
				<g>
					<polygon fill="#3C4D27" points="173,178.5 167,178.5 167,132.4 130.8,118 133,112.4 171.1,127.6 173,130.3 					"/>
				</g>
			</g>
			<g>
				<g>
					
						<rect x="150.2" y="112.3" transform="matrix(0.929 0.3702 -0.3702 0.929 54.7986 -55.0065)" fill="#3C4D27" width="41" height="6"/>
				</g>
			</g>
			<g>
				<g>
					<polygon fill="#3C4D27" points="173,178.5 167,178.5 167,130.3 168.9,127.6 207,112.4 209.2,118 173,132.4 					"/>
				</g>
			</g>
		</g>
	</g>
	<g>
		<g>
			<g>
				<g>
					<g>
						<path fill="#3C4D27" d="M67.5,117.5L88,99.7V129l6,4V99.7l-10.1-4.5l-21.4,18.7L67.5,117.5z M246,177v63H94v-62l-6-2v70h164
							v-70L246,177z M278,114.3l-21.9-19.1L246,99.7V133l6-4V99.7l20.5,17.8L278,114.3z M253,39.6l49,56v4.4l6-2v-4.7L255.8,34l0,0
							h-50.1c0,15-12.1,28.1-35.6,28.1S134.5,49,134.5,34H91.2L32,93.3V96l6,3v-3.2L93.7,40H129c2.7,15,15.7,28.1,41.1,28.1
							S208.4,55,211.2,40H253"/>
					</g>
				</g>
			</g>
		</g>
		<g>
			<g>
				<g>
					<g>
						<path fill="#3C4D27" d="M37.9,103.7l69.8,40.7l-15.5,30.7L37.9,145V103.7 M31.9,93.3v55.2l62.8,34.9l20.9-41.3L31.9,93.3
							L31.9,93.3z"/>
					</g>
				</g>
			</g>
		</g>
		<g>
			<g>
				<g>
					<g>
						<path fill="#3C4D27" d="M302.1,103.7V145l-54.2,30.1l-15.5-30.7L302.1,103.7 M308.1,93.3l-83.7,48.8l20.9,41.3l62.8-34.9V93.3
							L308.1,93.3z"/>
					</g>
				</g>
			</g>
		</g>
	</g>
</g>
</svg>
