<?xml version="1.0" encoding="utf-8"?>
<!-- Generator: Adobe Illustrator 19.1.0, SVG Export Plug-In . SVG Version: 6.00 Build 0)  -->
<svg version="1.1" xmlns="http://www.w3.org/2000/svg" xmlns:xlink="http://www.w3.org/1999/xlink" x="0px" y="0px"
	 viewBox="0 0 120 120" enable-background="new 0 0 120 120" xml:space="preserve">
<g id="Layer_2">
</g>
<g id="Layer_1">
</g>
<g id="Layer_3">
	<g>
		<g>
			<path fill="#F2F2E7" d="M39.6,23.5l1.4-4.4c3.3,1.2,5.7,2.2,7.2,3c-0.4-3.8-0.6-6.4-0.6-7.8h4.5c-0.1,2.1-0.3,4.7-0.7,7.8
				c2.2-1.1,4.6-2.1,7.4-3l1.4,4.4c-2.7,0.9-5.3,1.5-7.8,1.8c1.3,1.1,3.1,3.1,5.4,5.9l-3.8,2.7c-1.2-1.6-2.6-3.9-4.3-6.7
				c-1.5,2.9-2.9,5.2-4.1,6.7l-3.7-2.7c2.4-3,4.2-5,5.2-5.9C44.6,24.8,42.1,24.2,39.6,23.5z"/>
		</g>
	</g>
	<g>
		<polygon fill="#F2F2E7" points="50,41.4 13.2,115 86.8,115 		"/>
	</g>
	<g>
		<g>
			<polygon fill="#FF5533" points="60,30.8 23.2,104.3 96.8,104.3 			"/>
		</g>
		<g>
			
				<rect x="54.2" y="48.5" transform="matrix(0.8944 0.4472 -0.4472 0.8944 40.9092 -17.3599)" fill="#3C4D27" width="6" height="59"/>
		</g>
		<g>
			
				<rect x="70.6" y="71.6" transform="matrix(0.8944 0.4472 -0.4472 0.8944 47.531 -23.5408)" fill="#3C4D27" width="6" height="34.5"/>
		</g>
		<g>
			<g>
				<path fill="#FF5533" d="M49.6,13.5l1.4-4.4c3.3,1.2,5.7,2.2,7.2,3c-0.4-3.8-0.6-6.4-0.6-7.8h4.5c-0.1,2.1-0.3,4.7-0.7,7.8
					c2.2-1.1,4.6-2.1,7.4-3l1.4,4.4c-2.7,0.9-5.3,1.5-7.8,1.8c1.3,1.1,3.1,3.1,5.4,5.9l-3.8,2.7c-1.2-1.6-2.6-3.9-4.3-6.7
					c-1.5,2.9-2.9,5.2-4.1,6.7l-3.7-2.7c2.4-3,4.2-5,5.2-5.9C54.6,14.8,52.1,14.2,49.6,13.5z"/>
			</g>
		</g>
	</g>
</g>
</svg>
