<?xml version="1.0" encoding="utf-8"?>
<!-- Generator: Adobe Illustrator 19.1.0, SVG Export Plug-In . SVG Version: 6.00 Build 0)  -->
<svg version="1.1" xmlns="http://www.w3.org/2000/svg" xmlns:xlink="http://www.w3.org/1999/xlink" x="0px" y="0px"
	 viewBox="0 0 120 120" enable-background="new 0 0 120 120" xml:space="preserve">
<g id="Layer_2">
</g>
<g id="Layer_1">
</g>
<g id="Layer_3">
	<g>
		<g>
			<polygon fill="#3C4D27" points="8.5,85.7 4.3,90 17.2,103 5,103 5,109 53,109 53,102.6 35.8,85.5 31.4,89.9 44.2,103 39.4,103 
				22.5,85.7 18.3,90 31.2,103 25.4,103 			"/>
			<polygon fill="#3C4D27" points="85.1,9.2 89.8,5 103,17.8 103,5 109,5 109,53 101.5,53 84.4,36.2 89.4,31.9 103,44.8 103,40 
				85.1,23.2 89.8,19 103,31.8 103,26 			"/>
		</g>
		<g>
			<circle fill="#FF5533" cx="105.8" cy="105.4" r="9.2"/>
		</g>
		<g>
			<circle fill="#FF5533" cx="105.8" cy="75.4" r="9.2"/>
		</g>
		<g>
			<circle fill="#FF5533" cx="75.8" cy="105.4" r="9.2"/>
		</g>
	</g>
</g>
</svg>
