<?xml version="1.0" encoding="utf-8"?>
<!-- Generator: Adobe Illustrator 19.1.0, SVG Export Plug-In . SVG Version: 6.00 Build 0)  -->
<svg version="1.1" xmlns="http://www.w3.org/2000/svg" xmlns:xlink="http://www.w3.org/1999/xlink" x="0px" y="0px"
	 viewBox="0 0 120 120" enable-background="new 0 0 120 120" xml:space="preserve">
<g id="Layer_2">
</g>
<g id="Layer_1">
</g>
<g id="Layer_3">
	<g>
		<g>
			<g>
				<path fill="#F2F2E7" d="M97.7,53.1c0-13.5-10.9-24.4-24.4-24.4c-10.9,0-20.1,7.1-23.3,17c-3.2-9.8-12.4-17-23.3-17
					c-13.5,0-24.4,10.9-24.4,24.4c0,26.3,47.7,58.2,47.7,58.2S97.7,79.4,97.7,53.1z"/>
			</g>
		</g>
		<g>
			<g>
				<path fill="#FF5533" d="M107.7,43.1c0-13.5-10.9-24.4-24.4-24.4c-10.9,0-20.1,7.1-23.3,17c-3.2-9.8-12.4-17-23.3-17
					c-13.5,0-24.4,10.9-24.4,24.4c0,26.3,47.7,58.2,47.7,58.2S107.7,69.4,107.7,43.1z"/>
			</g>
		</g>
		<g>
			<g>
				<path fill="#3C4D27" d="M60,80.6c-9.3,0-17.2-6.6-17.2-13.6h6c0,3,4.8,7.6,11.2,7.6c6.4,0,11.2-4.6,11.2-7.6h6
					C77.2,74,69.4,80.6,60,80.6z"/>
			</g>
		</g>
	</g>
</g>
</svg>
