<?xml version="1.0" encoding="utf-8"?>
<!-- Generator: Adobe Illustrator 19.1.0, SVG Export Plug-In . SVG Version: 6.00 Build 0)  -->
<svg version="1.1" xmlns="http://www.w3.org/2000/svg" xmlns:xlink="http://www.w3.org/1999/xlink" x="0px" y="0px"
	 viewBox="0 0 320 240" enable-background="new 0 0 320 240" xml:space="preserve">
<g id="Layer_2">
</g>
<g id="Layer_1">
</g>
<g id="Layer_3">
	<g>
		<g>
			<g>
				<path fill="#F2F2E7" d="M230.7,26h-50.1c0,15-12.1,28.1-35.6,28.1S109.4,41,109.4,26H66.2L7,85.3v55.2l56-48.8V238h164V91.7
					l56,48.8V85.3L230.7,26z"/>
			</g>
			<g>
				<polygon fill="#F2F2E7" points="6.9,140.5 69.7,175.3 90.6,134.1 6.9,85.3 				"/>
			</g>
			<g>
				<polygon fill="#F2F2E7" points="283,140.5 220.3,175.3 199.4,134.1 283,85.3 				"/>
			</g>
		</g>
		<g>
			<g>
				<g>
					<polygon fill="#FF5533" points="196.9,148.5 155,165.2 113.1,148.5 113.1,95.5 155,78.8 196.9,95.5 					"/>
				</g>
			</g>
			<g>
				<g>
					<g>
						<polygon fill="#3C4D27" points="158,160.5 152,160.5 152,114.4 115.8,100 118,94.4 156.1,109.6 158,112.3 						"/>
					</g>
				</g>
				<g>
					<g>
						
							<rect x="135.2" y="94.3" transform="matrix(0.929 0.3702 -0.3702 0.929 47.068 -50.7234)" fill="#3C4D27" width="41" height="6"/>
					</g>
				</g>
				<g>
					<g>
						<polygon fill="#3C4D27" points="158,160.5 152,160.5 152,112.3 153.9,109.6 191.9,94.4 194.2,100 158,114.4 						"/>
					</g>
				</g>
			</g>
		</g>
		<g>
			<g>
				<g>
					<g>
						<g>
							<path fill="#3C4D27" d="M52.5,99.5L73,81.7V111l6,4V81.7l-10.1-4.5L47.5,95.9L52.5,99.5z M231,159v63H79v-62l-6-2v70h164v-70
								L231,159z M263,96.3l-21.9-19.1L231,81.7V115l6-4V81.7l20.5,17.8L263,96.3z M238,21.6l49,56V82l6-2v-4.7L240.8,16l0,0h-50.1
								c0,15-12.1,28.1-35.6,28.1S119.5,31,119.5,16H76.2L17,75.3V78l6,3v-3.2L78.7,22H114c2.7,15,15.7,28.1,41.1,28.1
								S193.4,37,196.2,22H238"/>
						</g>
					</g>
				</g>
			</g>
			<g>
				<g>
					<g>
						<g>
							<path fill="#3C4D27" d="M22.9,85.7l69.8,40.7l-15.5,30.7L22.9,127V85.7 M16.9,75.3v55.2l62.8,34.9l20.9-41.3L16.9,75.3
								L16.9,75.3z"/>
						</g>
					</g>
				</g>
			</g>
			<g>
				<g>
					<g>
						<g>
							<path fill="#3C4D27" d="M287.1,85.7V127l-54.2,30.1l-15.5-30.7L287.1,85.7 M293.1,75.3l-83.7,48.8l20.9,41.3l62.8-34.9V75.3
								L293.1,75.3z"/>
						</g>
					</g>
				</g>
			</g>
		</g>
	</g>
</g>
</svg>
