<?xml version="1.0" encoding="utf-8"?>
<!-- Generator: Adobe Illustrator 19.1.0, SVG Export Plug-In . SVG Version: 6.00 Build 0)  -->
<svg version="1.1" xmlns="http://www.w3.org/2000/svg" xmlns:xlink="http://www.w3.org/1999/xlink" x="0px" y="0px"
	 viewBox="0 0 180 180" enable-background="new 0 0 180 180" xml:space="preserve">
<g id="Layer_2">
</g>
<g id="Layer_1">
</g>
<g id="Layer_3">
	<g>
		<g>
			<path fill="#FF5533" d="M166.9,63c0-21.8-17.6-39.4-39.4-39.4C110,23.6,95.1,35.1,90,50.9c-5.1-15.9-20-27.4-37.5-27.4
				c-21.8,0-39.4,17.6-39.4,39.4c0,42.4,76.9,93.8,76.9,93.8S166.9,105.3,166.9,63z"/>
		</g>
		<g>
			<path fill="#3C4D27" d="M90,121.9c-15.1,0-27.8-6.9-27.8-21.9h9.7c0,5,7.7,12.2,18.1,12.2c10.4,0,18.1-7.2,18.1-12.2h9.7
				C117.8,115,105.1,121.9,90,121.9z"/>
		</g>
	</g>
</g>
</svg>
