<?xml version="1.0" encoding="utf-8"?>
<!-- Generator: Adobe Illustrator 19.1.0, SVG Export Plug-In . SVG Version: 6.00 Build 0)  -->
<svg version="1.1" xmlns="http://www.w3.org/2000/svg" xmlns:xlink="http://www.w3.org/1999/xlink" x="0px" y="0px"
	 viewBox="0 0 320 240" enable-background="new 0 0 320 240" xml:space="preserve">
<g id="Layer_2">
</g>
<g id="Layer_1">
</g>
<g id="Layer_3">
	<g>
		<g>
			<g>
				<path fill="#F2F2E7" d="M230.7,26h-50.1c0,15-12.1,28.1-35.6,28.1S109.4,41,109.4,26H66.2L7,85.3v55.2l56-48.8V238h164V91.7
					l56,48.8V85.3L230.7,26z"/>
			</g>
			<g>
				<polygon fill="#F2F2E7" points="6.9,140.5 69.7,175.3 90.6,134.1 6.9,85.3 				"/>
			</g>
			<g>
				<polygon fill="#F2F2E7" points="283,140.5 220.3,175.3 199.4,134.1 283,85.3 				"/>
			</g>
		</g>
		<g>
			<g>
				<polygon fill="#FF5533" points="155,85.2 118.2,158.8 191.8,158.8 				"/>
			</g>
			<g>
				
					<rect x="149.2" y="102.9" transform="matrix(0.8944 0.4472 -0.4472 0.8944 75.2896 -54.0831)" fill="#3C4D27" width="6" height="59"/>
			</g>
			<g>
				
					<rect x="165.6" y="126.1" transform="matrix(0.8944 0.4472 -0.4472 0.8944 81.9113 -60.264)" fill="#3C4D27" width="6" height="34.5"/>
			</g>
			<g>
				<g>
					<path fill="#FF5533" d="M144.6,68l1.4-4.4c3.3,1.2,5.7,2.2,7.2,3c-0.4-3.8-0.6-6.4-0.6-7.8h4.5c-0.1,2.1-0.3,4.7-0.7,7.8
						c2.2-1.1,4.6-2.1,7.4-3l1.4,4.4c-2.7,0.9-5.3,1.5-7.8,1.8c1.3,1.1,3.1,3.1,5.4,5.9l-3.8,2.7c-1.2-1.6-2.6-3.9-4.3-6.7
						c-1.5,2.9-2.9,5.2-4.1,6.7l-3.7-2.7c2.4-3,4.2-5,5.2-5.9C149.6,69.2,147,68.6,144.6,68z"/>
				</g>
			</g>
		</g>
		<g>
			<g>
				<g>
					<g>
						<g>
							<path fill="#3C4D27" d="M52.5,99.5L73,81.7V111l6,4V81.7l-10.1-4.5L47.5,95.9L52.5,99.5z M231,159v63H79v-62l-6-2v70h164v-70
								L231,159z M263,96.3l-21.9-19.1L231,81.7V115l6-4V81.7l20.5,17.8L263,96.3z M238,21.6l49,56V82l6-2v-4.7L240.8,16l0,0h-50.1
								c0,15-12.1,28.1-35.6,28.1S119.5,31,119.5,16H76.2L17,75.3V78l6,3v-3.2L78.7,22H114c2.7,15,15.7,28.1,41.1,28.1
								S193.4,37,196.2,22H238"/>
						</g>
					</g>
				</g>
			</g>
			<g>
				<g>
					<g>
						<g>
							<path fill="#3C4D27" d="M22.9,85.7l69.8,40.7l-15.5,30.7L22.9,127V85.7 M16.9,75.3v55.2l62.8,34.9l20.9-41.3L16.9,75.3
								L16.9,75.3z"/>
						</g>
					</g>
				</g>
			</g>
			<g>
				<g>
					<g>
						<g>
							<path fill="#3C4D27" d="M287.1,85.7V127l-54.2,30.1l-15.5-30.7L287.1,85.7 M293.1,75.3l-83.7,48.8l20.9,41.3l62.8-34.9V75.3
								L293.1,75.3z"/>
						</g>
					</g>
				</g>
			</g>
		</g>
	</g>
</g>
</svg>
