<?xml version="1.0" encoding="utf-8"?>
<!-- Generator: Adobe Illustrator 19.1.0, SVG Export Plug-In . SVG Version: 6.00 Build 0)  -->
<svg version="1.1" xmlns="http://www.w3.org/2000/svg" xmlns:xlink="http://www.w3.org/1999/xlink" x="0px" y="0px"
	 viewBox="0 0 120 120" enable-background="new 0 0 120 120" xml:space="preserve">
<g id="Layer_2">
</g>
<g id="Layer_1">
</g>
<g id="Layer_3">
	<g>
		<g>
			<polygon fill="#3C4D27" points="34,8.5 29.8,4.3 17,17.2 17,5 11,5 11,53 16.7,53 33.8,35.8 29.7,31.4 17,44.2 17,39.3 34,22.5 
				29.8,18.3 17,31.2 17,25.3 			"/>
			<polygon fill="#3C4D27" points="110.1,85.1 114.3,89.7 101.5,103 115,103 115,109 67,109 67,101.5 83.5,84.4 87.5,89.4 74.5,103 
				79.3,103 96.1,85.1 100.3,89.7 87.5,103 93.3,103 			"/>
		</g>
		<g>
			<circle fill="#FF5533" cx="13.9" cy="105.8" r="9.2"/>
		</g>
		<g>
			<circle fill="#FF5533" cx="43.9" cy="105.8" r="9.2"/>
		</g>
		<g>
			<circle fill="#FF5533" cx="13.9" cy="75.8" r="9.2"/>
		</g>
	</g>
</g>
</svg>
