<?xml version="1.0" encoding="utf-8"?>
<!-- Generator: Adobe Illustrator 19.1.0, SVG Export Plug-In . SVG Version: 6.00 Build 0)  -->
<svg version="1.1" xmlns="http://www.w3.org/2000/svg" xmlns:xlink="http://www.w3.org/1999/xlink" x="0px" y="0px"
	 viewBox="0 0 32 32" enable-background="new 0 0 32 32" xml:space="preserve">
<g id="Layer_2">
</g>
<g id="Layer_1">
</g>
<g id="Layer_3">
	<g>
		<g>
			<path fill="#FF5533" d="M31,10.9c0-4.2-3.4-7.7-7.7-7.7c-3.4,0-6.3,2.2-7.3,5.3c-1-3.1-3.9-5.3-7.3-5.3C4.4,3.2,1,6.6,1,10.9
				c0,8.3,15,18.3,15,18.3S31,19.1,31,10.9z"/>
		</g>
		<g>
			<path fill="#3C4D27" d="M16,22.3c-2.9,0-5.4-1.3-5.4-4.3h1.9c0,1,1.5,2.4,3.5,2.4c2,0,3.5-1.4,3.5-2.4h1.9
				C21.4,21,18.9,22.3,16,22.3z"/>
		</g>
	</g>
</g>
</svg>
