<?xml version="1.0" encoding="utf-8"?>
<!-- Generator: Adobe Illustrator 19.1.0, SVG Export Plug-In . SVG Version: 6.00 Build 0)  -->
<svg version="1.1" xmlns="http://www.w3.org/2000/svg" xmlns:xlink="http://www.w3.org/1999/xlink" x="0px" y="0px"
	 viewBox="0 0 210 43.8" enable-background="new 0 0 210 43.8" xml:space="preserve">
<g id="Layer_2">
</g>
<g id="Layer_1">
</g>
<g id="Layer_3">
	<g>
		<g>
			<circle fill="#FF5533" cx="104.5" cy="24" r="9.2"/>
			<circle fill="#FF5533" cx="104.5" cy="24" r="9.2"/>
			<circle fill="#FF5533" cx="134.5" cy="24" r="9.2"/>
			<circle fill="#FF5533" cx="74.5" cy="24" r="9.2"/>
		</g>
		<polygon fill="#3C4D27" points="199.4,4.2 203.7,8.7 190.8,21.8 204,21.8 204,27.8 156,27.8 156,20.9 172.7,3.8 176.8,8.5 
			163.8,21.8 168.6,21.8 185.4,4.2 189.7,8.7 176.8,21.8 182.6,21.8 		"/>
		<polygon fill="#3C4D27" points="9.6,4.2 5.3,8.7 18.2,21.8 5,21.8 5,27.8 53,27.8 53,20.9 36.3,3.8 32.2,8.5 45.2,21.8 40.4,21.8 
			23.6,4.2 19.3,8.7 32.2,21.8 26.4,21.8 		"/>
	</g>
</g>
</svg>
