<?xml version="1.0" encoding="utf-8"?>
<!-- Generator: Adobe Illustrator 19.1.0, SVG Export Plug-In . SVG Version: 6.00 Build 0)  -->
<svg version="1.1" xmlns="http://www.w3.org/2000/svg" xmlns:xlink="http://www.w3.org/1999/xlink" x="0px" y="0px"
	 viewBox="0 0 558 558" enable-background="new 0 0 558 558" xml:space="preserve">
<g id="Layer_2">
</g>
<g id="Layer_1">
</g>
<g id="Layer_3">
	<g>
		<g>
			<g>
				<path fill="#F2F2E7" d="M406.5,119h-79.4c0,24-19.2,44.5-56.5,44.5S214.2,143,214.2,119h-68.5L51,212.9v87.5l89-77.4v232h261
					V223l89,77.4v-87.5L406.5,119z"/>
			</g>
			<g>
				<polygon fill="#F2F2E7" points="52.9,300.4 152.4,355.6 185.6,290.2 52.9,212.9 				"/>
			</g>
			<g>
				<polygon fill="#F2F2E7" points="490.6,300.4 391.2,355.6 358,290.2 490.6,212.9 				"/>
			</g>
		</g>
		<g>
			<g>
				<g>
					<path fill="#FF5533" d="M362,244.3c0-21.4-17.3-38.7-38.7-38.7c-17.3,0-31.9,11.3-36.9,26.9c-5-15.6-19.6-26.9-36.9-26.9
						c-21.4,0-38.7,17.3-38.7,38.7c0,41.7,75.6,92.3,75.6,92.3S362,285.9,362,244.3z"/>
				</g>
			</g>
			<g>
				<g>
					<path fill="#3C4D27" d="M286.4,303.5c-14.8,0-27.3-10.5-27.3-21.5h9.5c0,5,7.6,12,17.8,12c10.2,0,17.8-7,17.8-12h9.5
						C313.7,293,301.2,303.5,286.4,303.5z"/>
				</g>
			</g>
		</g>
		<g>
			<g>
				<g>
					<g>
						<g>
							<path fill="#3C4D27" d="M125.2,235.4l32.5-28.2v46.4l9.5,6.3v-52.8l-16-7.1l-33.9,29.6L125.2,235.4z M408.1,329.7v99.9h-241
								v-98.3l-9.5-3.2v111h260v-111L408.1,329.7z M458.8,230.3L424.1,200l-16,7.1V260l9.5-6.3v-46.4l32.5,28.2L458.8,230.3z
								 M419.2,111.9l77.7,88.8v7l9.5-3.2V197l-82.7-94l0,0h-79.4c0,23.8-19.2,44.5-56.4,44.5s-56.4-20.8-56.4-44.5h-68.6l-93.8,94
								v4.3l9.5,4.8V201l88.3-88.5h56c4.3,23.8,24.9,44.5,65.2,44.5s60.7-20.8,65.2-44.5h66.3"/>
						</g>
					</g>
				</g>
			</g>
			<g>
				<g>
					<g>
						<g>
							<path fill="#3C4D27" d="M78.2,213.5L188.9,278l-24.6,48.7L78.2,279V213.5 M68.7,197v87.5l99.6,55.3l33.1-65.5L68.7,197
								L68.7,197z"/>
						</g>
					</g>
				</g>
			</g>
			<g>
				<g>
					<g>
						<g>
							<path fill="#3C4D27" d="M497,213.5V279l-85.9,47.7L386.6,278L497,213.5 M506.6,197l-132.7,77.4l33.1,65.5l99.6-55.3V197
								L506.6,197z"/>
						</g>
					</g>
				</g>
			</g>
		</g>
	</g>
</g>
</svg>
