<?xml version="1.0" encoding="utf-8"?>
<!-- Generator: Adobe Illustrator 19.1.0, SVG Export Plug-In . SVG Version: 6.00 Build 0)  -->
<svg version="1.1" xmlns="http://www.w3.org/2000/svg" xmlns:xlink="http://www.w3.org/1999/xlink" x="0px" y="0px"
	 viewBox="0 0 1400 250" enable-background="new 0 0 1400 250" xml:space="preserve">
<g id="Layer_2">
</g>
<g id="Layer_1">
</g>
<g id="Layer_3">
	<rect x="108" y="32" fill="#F2F2E7" width="21" height="31"/>
	<polygon fill="#F2F2E7" points="33.1,220 55.2,141.5 37.8,80 12.8,80 34.9,158.5 12.8,237 143,237 143,220 	"/>
	<polygon fill="#F2F2E7" points="1237.6,220 1237,221.3 1267,173 129,173 164,191 1217,191 1217,237 1346.9,237 1342.2,220 	"/>
	<path fill="#FF5533" d="M1367.2,220H1237l34.8-47H128.4l35.6,47H33.1l22.1-78.5L33.1,63H129V15h1143v48h95.2l-22.1,78.5L1367.2,220
		z"/>
	<polygon fill="#3C4D27" points="164,173 128.4,173 164,220 	"/>
	<polygon fill="#3C4D27" points="1237,220 1271.8,173 1237,173 	"/>
</g>
</svg>
